PathFileType	4	(X/Y/Z)	C:\Users\WrightLab\Desktop\Jo\P1_boxCal34.trc
DataRate	CameraRate	NumFrames	NumMarkers	Units	OrigDataRate	OrigDataStartFrame	OrigNumFrames
100.00	100.00	       11	19	mm	100.00	137	       544
Frame#	Time	Headset_Front			Headset_Back			Headset_Left			Headset_Right			Left_Shoulder			Right_Shoulder			Sternum			C7			Left Elbow			Right Elbow			Left Wrist			Right Wrist			Left ASIS			Right ASIS			S2			Left Knee			Right Knee			Left Ankle			Right Ankle			
		X1	Y1	Z1	X2	Y2	Z2	X3	Y3	Z3	X4	Y4	Z4	X5	Y5	Z5	X6	Y6	Z6	X7	Y7	Z7	X8	Y8	Z8	X9	Y9	Z9	X10	Y10	Z10	X11	Y11	Z11	X12	Y12	Z12	X13	Y13	Z13	X14	Y14	Z14	X15	Y15	Z15	X16	Y16	Z16	X17	Y17	Z17	X18	Y18	Z18	X19	Y19	Z19	

137	1.360	-608.86334	1361.21313	-433.80447	-595.43085	1489.27197	-704.11768	-494.55087	1410.33350	-594.88721	-708.25543	1417.22131	-525.00519	-429.03946	1243.37000	-629.04401	-808.18274	1247.90161	-692.12354	-667.43274	1145.94434	-542.29126	-589.31866	1254.11621	-770.00446	-351.59082	923.51160	-668.06573	-886.53955	982.09180	-765.63489	-304.90750	737.13806	-567.62079	-953.34564	747.40112	-705.96619	-586.35577	862.94043	-489.81924	-766.84534	862.78766	-574.82434	-534.08643	868.88135	-817.44214	-515.15717	432.11346	-529.94836	-857.52185	438.68631	-676.66724				-563.67816	60.16957	-576.38055	
138	1.370	-611.83246	1362.13354	-422.32266	-598.77228	1491.04199	-695.63940	-497.29837	1411.60840	-586.04950	-711.19092	1418.37292	-515.65601	-431.89734	1244.89758	-620.57977	-811.45776	1248.98877	-683.34772	-670.21454	1149.16345	-531.58850	-592.56482	1255.40027	-761.35156	-353.36658	925.88416	-658.99475	-889.00513	982.74890	-757.41071	-308.47293	740.12244	-553.82709	-956.51935	748.41486	-697.17151	-586.55170	865.20630	-479.71057	-768.50946	863.65308	-563.79913	-536.52100	870.75183	-809.81244	-512.70557	432.65088	-527.32391	-863.88055	444.69983	-655.63629				-562.05225	61.25209	-578.56830	
139	1.380	-614.16852	1363.45984	-414.13239	-602.15656	1492.83069	-687.03186	-500.41058	1413.53491	-578.07599	-714.12347	1419.80493	-507.04886	-433.93124	1247.53943	-613.34790	-814.23816	1250.30237	-675.10083	-671.68683	1149.09265	-524.81378	-595.72888	1256.62219	-752.50433	-354.82834	928.04730	-648.34680	-891.10419	983.96429	-749.37457	-310.47537	743.69409	-542.09918	-959.31073	749.26379	-687.29126	-587.45673	867.25903	-471.18179	-770.69623	865.52905	-552.18970	-540.98358	872.17120	-799.52954	-511.41525	431.23929	-526.60419	-870.14020	450.24719	-636.14282				-561.85193	62.00724	-581.49255	
140	1.390	-616.54254	1365.57739	-405.46292	-605.62488	1494.24512	-678.29156	-503.04303	1415.77722	-570.61871	-717.28473	1421.44592	-498.13159	-436.47409	1249.65222	-606.06824	-816.93555	1250.77026	-666.02240	-673.04016	1149.12842	-517.62781	-598.82349	1257.87012	-743.95526	-356.65564	930.18256	-638.53217	-894.01312	985.46252	-742.02234	-314.82922	745.27240	-528.14880	-962.16376	750.46783	-678.93549	-588.09833	869.59479	-460.73679	-771.62476	866.72809	-541.20490	-544.64160	873.49500	-790.35449	-509.75830	431.09741	-524.38800	-875.37488	455.37656	-615.11981	-390.12909	138.30765	-28.32675	-561.93402	61.79109	-582.84637	
141	1.400	-618.38623	1366.91626	-398.59692	-609.11279	1495.68225	-670.03522	-506.10703	1416.73938	-562.02008	-719.81250	1422.08179	-488.73517	-439.56711	1251.96350	-597.36249	-819.49066	1251.85693	-657.37122				-601.88934	1259.14490	-736.09003	-358.14484	932.46588	-629.07434	-895.05634	985.69177	-734.14783	-317.45587	749.18323	-515.28442	-964.93024	751.92719	-671.00165	-588.36005	873.03204	-450.96576	-773.12189	868.70935	-529.65692	-548.59766	874.81476	-781.99139	-508.69110	431.02908	-523.08228	-879.27026	460.81042	-596.67584				-560.81122	62.50972	-584.90686	
142	1.410	-620.69684	1367.21814	-390.28244	-612.63306	1497.02576	-661.49414	-508.95187	1418.10791	-553.82227	-722.41754	1423.36609	-480.20554	-442.09680	1253.87720	-589.91754	-821.58289	1252.68738	-648.45819				-604.84082	1260.11316	-726.85034	-360.16278	934.01880	-618.61896	-896.28448	986.53674	-725.64520	-320.46423	752.01691	-502.84879	-967.45959	753.04730	-662.71484	-587.25037	875.04065	-442.39862	-774.82062	870.88232	-518.65973	-551.77045	876.52649	-774.88806	-508.26285	430.42224	-521.63892	-883.28870	466.23944	-579.36768				-560.10699	62.84587	-585.76440	
143	1.420	-623.49915	1369.18188	-380.50922	-616.19464	1498.09338	-652.41217	-512.27887	1420.57544	-545.48682	-725.76746	1424.66223	-471.64059	-444.59067	1255.19067	-581.83936	-824.47687	1253.05286	-638.95142				-607.90820	1261.00659	-718.26703	-362.16040	935.58521	-609.21545	-897.86877	987.50134	-717.30341	-324.67096	753.90875	-489.67505	-969.88898	753.81226	-653.80420	-589.57855	876.82025	-434.36066	-776.10645	872.80652	-507.23874	-555.93005	877.69324	-766.94574	-506.86560	431.02905	-518.25659	-885.14026	470.35489	-562.32275	-671.70264	177.64494	-794.58234	-558.74939	63.64848	-587.50232	
144	1.430	-626.03790	1370.41272	-370.89423	-619.69495	1499.32788	-644.25903	-514.96893	1421.56494	-536.12689	-728.33209	1424.73877	-462.15482	-446.85440	1256.72827	-574.69897	-827.29993	1254.22498	-629.77985				-611.08948	1261.46680	-709.55121	-363.52649	937.42749	-599.80212	-899.20117	987.87946	-708.79840	-327.28293	757.29169	-477.27661	-972.64020	754.10956	-644.90851	-589.11389	878.77881	-423.38889	-776.43762	874.27448	-496.12494	-560.79883	876.95984	-756.33856	-507.04553	430.59943	-516.41040	-886.98047	474.61346	-545.92053				-559.37335	63.33891	-588.01001	
145	1.440	-628.37323	1371.82520	-362.43500	-623.30688	1499.98877	-635.07758	-517.97607	1423.11011	-528.81030	-731.65802	1425.98096	-453.90207	-449.25446	1258.30688	-567.80292	-829.81329	1254.00073	-619.57587	-682.17407	1161.14575	-465.46924	-614.20197	1262.09741	-701.16046	-364.85678	938.94727	-591.09644	-900.85651	988.02911	-700.03809	-330.76819	759.46179	-464.57974	-975.02734	754.78101	-636.43146	-588.89124	880.41528	-414.35538	-778.26459	875.75928	-484.77856	-564.63153	878.28278	-749.92310	-506.76352	430.36942	-513.61438	-888.16309	477.69586	-529.65906				-559.74493	63.30002	-588.41467	
146	1.450	-630.42346	1371.42883	-354.39642	-626.79773	1501.04236	-627.23950	-521.51556	1424.06799	-520.14392	-734.13666	1426.14771	-444.92670	-451.71683	1259.04602	-558.95392	-832.59131	1254.72437	-610.73279	-683.14807	1160.66602	-456.90326	-617.31085	1262.28479	-691.77399	-367.09933	939.63507	-581.36603	-903.08557	988.86432	-691.40808	-334.09808	762.33905	-452.32962	-976.95776	755.04791	-627.97717	-589.96631	881.27753	-408.33533	-779.88397	877.19849	-474.53970	-569.02759	877.75281	-741.56915	-505.74240	430.32840	-511.64392	-889.54230	480.74075	-513.62628	-758.57007	103.11029	-644.51007	-559.74493	63.30002	-588.41467	
147	1.460	-632.65967	1373.46558	-345.50687	-630.44836	1501.20227	-618.24658	-524.49908	1425.09546	-510.36792	-736.78778	1426.50391	-435.49014	-454.26886	1259.61108	-549.98322	-835.56177	1254.48279	-600.42163	-684.03192	1160.29358	-448.05151	-620.31488	1262.82727	-682.65802	-369.18448	940.63477	-571.86609	-905.20050	989.16718	-682.63647	-337.50693	764.14795	-439.71994	-978.69745	754.24969	-618.49469	-589.44092	881.49219	-400.21634	-780.73700	878.01355	-463.74625	-574.19189	878.25598	-733.61023	-506.53201	429.07489	-508.93173	-890.72388	483.35318	-498.31317	-769.31024	95.59505	-622.04602	-559.55371	63.47207	-587.99292	
